<svg width="25" height="24" viewBox="0 0 25 24" fill="none" xmlns="http://www.w3.org/2000/svg">
<path d="M24.6152 2.17636L22.8523 0.389946C22.3655 -0.129982 21.5103 -0.129982 20.9972 0.389946L9.20932 12.335L12.8273 16.0011L24.6152 4.0561C25.1283 3.53618 25.1283 2.66963 24.6152 2.17636ZM6.57808 14.668C5.53131 14.668 4.52742 15.0893 3.78724 15.8394C3.04706 16.5894 2.63123 17.6067 2.63123 18.6674C2.63123 20.4138 1.10512 21.3337 0 21.3337C1.21037 22.9601 3.28904 24 5.26247 24C6.65816 24 7.99669 23.4382 8.98359 22.4381C9.9705 21.4381 10.5249 20.0817 10.5249 18.6674C10.5249 17.6067 10.1091 16.5894 9.36893 15.8394C8.62875 15.0893 7.62485 14.668 6.57808 14.668Z" fill="black"/>
</svg>
