<svg width="50" height="61" viewBox="0 0 50 61" fill="none" xmlns="http://www.w3.org/2000/svg">
<g filter="url(#filter0_d_40_26)">
<path d="M46 53H4V47.7182C4 41.9081 13.45 37.1545 25 37.1545C36.55 37.1545 46 41.9081 46 47.7182V53ZM14.5 18.668H35.5V21.3089C35.5 27.119 30.775 31.8726 25 31.8726C19.225 31.8726 14.5 27.119 14.5 21.3089V18.668ZM43.375 5.46341C41.8 5.46341 40.75 6.51978 40.75 8.10433V10.7453H36.8125L33.1375 2.82249C32.875 2.2943 32.6125 1.76612 32.0875 1.50202C30.775 0.181563 28.675 -0.0825286 26.8375 0.709748L25 1.23793L23.1625 0.445655C21.325 -0.346621 19.225 -0.0825284 17.9125 1.23793C17.3875 1.76612 17.125 2.2943 16.8625 2.82249L13.1875 10.7453H9.25V8.10433C9.25 6.51978 8.2 5.46341 6.625 5.46341C5.05 5.46341 4 6.51978 4 8.10433V10.7453C4 13.6503 6.3625 16.0271 9.25 16.0271H40.75C43.6375 16.0271 46 13.6503 46 10.7453V8.10433C46 6.78387 44.95 5.46341 43.375 5.46341Z" fill="black"/>
</g>
<defs>
<filter id="filter0_d_40_26" x="0" y="0" width="50" height="61" filterUnits="userSpaceOnUse" color-interpolation-filters="sRGB">
<feFlood flood-opacity="0" result="BackgroundImageFix"/>
<feColorMatrix in="SourceAlpha" type="matrix" values="0 0 0 0 0 0 0 0 0 0 0 0 0 0 0 0 0 0 127 0" result="hardAlpha"/>
<feOffset dy="4"/>
<feGaussianBlur stdDeviation="2"/>
<feComposite in2="hardAlpha" operator="out"/>
<feColorMatrix type="matrix" values="0 0 0 0 0 0 0 0 0 0 0 0 0 0 0 0 0 0 0.25 0"/>
<feBlend mode="normal" in2="BackgroundImageFix" result="effect1_dropShadow_40_26"/>
<feBlend mode="normal" in="SourceGraphic" in2="effect1_dropShadow_40_26" result="shape"/>
</filter>
</defs>
</svg>
