<svg width="14" height="20" viewBox="0 0 14 20" fill="none" xmlns="http://www.w3.org/2000/svg">
<path d="M13.27 4C14.28 6.17 14.05 8.73 12.94 10.81C12 12.5 10.65 13.93 9.50002 15.5C9.00002 16.2 8.50002 16.95 8.13002 17.76C8.00002 18.03 7.91002 18.31 7.81002 18.59C7.71002 18.87 7.62002 19.15 7.53002 19.43C7.44002 19.69 7.33002 20 7.00002 20C6.61002 20 6.50002 19.56 6.42002 19.26C6.18002 18.53 5.94002 17.83 5.57002 17.16C5.15002 16.37 4.62002 15.64 4.08002 14.93L13.27 4ZM4.12002 6.42L0.820018 10.34C1.43002 11.63 2.34002 12.73 3.21002 13.83C3.42002 14.08 3.63002 14.34 3.83002 14.61L8.00002 9.67L7.96002 9.68C6.50002 10.18 4.88002 9.44 4.30002 8C4.22002 7.83 4.16002 7.63 4.12002 7.43C4.065 7.09894 4.065 6.76107 4.12002 6.43V6.42ZM1.58002 2.62L1.57002 2.63C-0.0499822 4.68 -0.329983 7.53 0.640018 9.94L4.63002 5.2L4.58002 5.15L1.58002 2.62ZM9.22002 0.36L6.00002 4.17L6.04002 4.16C7.38002 3.7 8.88002 4.28 9.56002 5.5C9.71002 5.78 9.83002 6.08 9.87002 6.38C9.93002 6.76 9.95002 7.03 9.88002 7.4V7.41L13.08 3.61C12.2435 2.08939 10.8712 0.934449 9.23002 0.37L9.22002 0.36ZM4.89002 4.89L8.80002 0.24L8.76002 0.23C8.18002 0.08 7.59002 0 7.00002 0C5.03002 0 3.17002 0.85 1.85002 2.31L1.83002 2.32L4.89002 4.89Z" fill="black"/>
</svg>
