<svg width="81" height="65" viewBox="0 0 81 65" fill="none" xmlns="http://www.w3.org/2000/svg">
<path d="M66.5898 0.418797L0.42865 22.3378L14.416 64.5578L80.5772 42.6388L66.5898 0.418797Z" fill="#BFBEBE"/>
<path d="M80.4613 42.2353C79.8726 42.4293 79.2838 42.6267 78.6951 42.8207C77.086 43.3526 75.477 43.8879 73.8645 44.4197C71.4928 45.2059 69.121 45.992 66.7492 46.7748C63.8556 47.7315 60.9653 48.6916 58.0717 49.6484C54.9037 50.6988 51.7358 51.7458 48.5679 52.7962C45.3564 53.86 42.145 54.9238 38.9336 55.9876C35.953 56.9744 32.969 57.9646 29.9884 58.9515C27.4694 59.7878 24.9471 60.6207 22.4282 61.457C20.615 62.0592 18.8019 62.658 16.9888 63.2601C16.1425 63.5411 15.2292 63.7586 14.4096 64.1165C14.3728 64.1332 14.3327 64.1399 14.2959 64.1533C14.4665 64.2503 14.6404 64.3473 14.8111 64.4443C14.3461 63.0427 13.8811 61.6377 13.4161 60.236C12.2988 56.8674 11.1848 53.4987 10.0675 50.1301C8.72272 46.0723 7.37793 42.0112 6.03315 37.9534C4.87235 34.4442 3.70821 30.9351 2.54741 27.4259C2.16271 26.2651 1.778 25.1043 1.3933 23.9435C1.21935 23.4183 1.10227 22.7894 0.848029 22.2943C0.837993 22.2743 0.831302 22.2475 0.824612 22.2241C0.7276 22.3947 0.630588 22.5687 0.533576 22.7393C1.12234 22.5452 1.7111 22.3479 2.29986 22.1538C3.90892 21.622 5.51798 21.0867 7.13039 20.5548C9.50216 19.7687 11.8739 18.9826 14.2457 18.1998C17.1393 17.243 20.0296 16.283 22.9233 15.3262C26.0912 14.2758 29.2591 13.2288 32.4271 12.1783C35.6385 11.1146 38.8499 10.0508 42.0614 8.98699C45.042 8.00014 48.0259 7.00995 51.0065 6.02311C53.5255 5.1868 56.0478 4.35384 58.5668 3.51753C60.3799 2.91538 62.193 2.31659 64.0061 1.71444C64.8525 1.43344 65.7657 1.216 66.5853 0.858063C66.6221 0.841337 66.6622 0.834646 66.699 0.821265C66.5284 0.724254 66.3545 0.627242 66.1839 0.53023C66.6489 1.93188 67.1139 3.33688 67.5788 4.73854C68.6962 8.10719 69.8101 11.4758 70.9274 14.8445C72.2722 18.9023 73.617 22.9634 74.9618 27.0212C76.1226 30.5303 77.2867 34.0395 78.4475 37.5486C79.0129 39.258 79.5414 40.9842 80.1469 42.6802C80.1536 42.7036 80.1636 42.7271 80.1703 42.7505C80.3376 43.2589 81.1471 43.0415 80.9765 42.5297C80.5115 41.128 80.0465 39.723 79.5816 38.3214C78.4643 34.9527 77.3503 31.5841 76.233 28.2154C74.8882 24.1576 73.5434 20.0965 72.1986 16.0388C71.0378 12.5296 69.8737 9.02044 68.7129 5.51129C68.1475 3.80187 67.619 2.07573 67.0135 0.379694C67.0068 0.356278 66.9968 0.332861 66.9901 0.309445C66.9232 0.10204 66.6991 -0.0551859 66.4749 0.0184093C65.8862 0.212433 65.2974 0.409802 64.7086 0.603826C63.0996 1.13572 61.4905 1.67096 59.8781 2.20285C57.5063 2.98898 55.1346 3.77511 52.7628 4.5579C49.8692 5.51463 46.9789 6.47472 44.0852 7.43145C40.9173 8.48186 37.7494 9.52892 34.5814 10.5793C31.37 11.6431 28.1586 12.7069 24.9471 13.7707C21.9665 14.7575 18.9826 15.7477 16.002 16.7346C13.483 17.5709 10.9607 18.4038 8.44172 19.2401C6.6286 19.8423 4.81548 20.4411 3.00236 21.0432C2.14264 21.3276 1.27622 21.6019 0.423183 21.8996C0.386386 21.913 0.349588 21.923 0.309445 21.9364C0.10204 22.0033 -0.055186 22.2274 0.0184093 22.4516C0.483397 23.8532 0.948386 25.2582 1.41337 26.6599C2.53068 30.0285 3.64465 33.3972 4.76196 36.7658C6.10674 40.8236 7.45153 44.8847 8.79632 48.9425C9.95711 52.4517 11.1213 55.9608 12.2821 59.47C12.8474 61.1794 13.3759 62.9055 13.9814 64.6016C13.9881 64.625 13.9982 64.6484 14.0049 64.6718C14.0718 64.8792 14.2959 65.0364 14.52 64.9629C15.1088 64.7688 15.6975 64.5715 16.2863 64.3774C17.8954 63.8455 19.5044 63.3103 21.1168 62.7784C23.4886 61.9923 25.8604 61.2061 28.2321 60.4234C31.1258 59.4666 34.0161 58.5065 36.9097 57.5498C40.0776 56.4994 43.2456 55.4523 46.4135 54.4019C49.625 53.3381 52.8364 52.2744 56.0478 51.2106C59.0284 50.2237 62.0124 49.2335 64.993 48.2467C67.5119 47.4104 70.0342 46.5774 72.5532 45.7411C74.3663 45.139 76.1795 44.5402 77.9926 43.938C78.8523 43.6537 79.7187 43.3794 80.5717 43.0816C80.6086 43.0683 80.6453 43.0582 80.6855 43.0449C81.194 42.8742 80.9765 42.068 80.4613 42.2353Z" fill="#4A4848"/>
<path d="M73.0126 6.28474L3.65247 13.073L7.98432 57.3344L77.3445 50.5462L73.0126 6.28474Z" fill="white"/>
<path d="M77.347 50.1335C76.7315 50.1937 76.1126 50.2539 75.4971 50.3141C73.8111 50.478 72.1217 50.6453 70.4357 50.8092C67.9502 51.0534 65.4647 51.2943 62.9758 51.5385C59.9417 51.8362 56.9109 52.1306 53.8768 52.4283C50.555 52.7528 47.2332 53.0773 43.9113 53.4018C40.546 53.7296 37.1774 54.0608 33.8121 54.3886C30.6843 54.693 27.5598 55.0008 24.432 55.3052C21.7893 55.5628 19.1465 55.8237 16.5072 56.0813C14.6071 56.2686 12.707 56.4526 10.8069 56.64C9.92038 56.7269 8.97703 56.7336 8.10057 56.9042C8.06378 56.9109 8.02029 56.9109 7.98349 56.9143C8.12399 57.0548 8.26115 57.1919 8.40165 57.3324C8.2578 55.8605 8.11395 54.3886 7.97011 52.9201C7.62555 49.3875 7.27765 45.8583 6.93309 42.3257C6.51828 38.0706 6.10012 33.8154 5.68531 29.5569C5.32403 25.8772 4.96609 22.2007 4.6048 18.521C4.48437 17.3033 4.36729 16.089 4.24686 14.8713C4.19334 14.3194 4.2201 13.6804 4.07625 13.1418C4.06956 13.1184 4.07291 13.0917 4.06956 13.0683C3.92906 13.2087 3.79191 13.3459 3.65141 13.4864C4.26693 13.4262 4.8858 13.366 5.50132 13.3058C7.18732 13.1418 8.87667 12.9746 10.5627 12.8107C13.0482 12.5665 15.5337 12.3256 18.0225 12.0814C21.0567 11.7837 24.0875 11.4893 27.1216 11.1916C30.4434 10.8671 33.7652 10.5426 37.0871 10.2181C40.4524 9.89028 43.821 9.5591 47.1863 9.23126C50.3141 8.92685 53.4386 8.61908 56.5664 8.31467C59.2091 8.05708 61.8518 7.79616 64.4912 7.53857C66.3913 7.35124 68.2914 7.16725 70.1915 6.97992C71.078 6.89294 72.0214 6.88625 72.8978 6.71564C72.9346 6.70895 72.9781 6.70895 73.0149 6.70561C72.8744 6.56511 72.7373 6.42795 72.5968 6.28745C72.7406 7.75936 72.8844 9.23126 73.0283 10.6998C73.3728 14.2324 73.7208 17.7616 74.0653 21.2942C74.4801 25.5493 74.8983 29.8045 75.3131 34.063C75.6744 37.7427 76.0323 41.4191 76.3936 45.0989C76.5676 46.8919 76.7248 48.6883 76.9188 50.478C76.9221 50.5015 76.9221 50.5282 76.9255 50.5516C76.979 51.0835 77.8153 51.0869 77.7618 50.5516C77.618 49.0797 77.4741 47.6078 77.3303 46.1393C76.9857 42.6067 76.6378 39.0775 76.2932 35.5449C75.8784 31.2898 75.4603 27.0346 75.0455 22.7761C74.6842 19.0964 74.3262 15.42 73.965 11.7402C73.791 9.94715 73.6338 8.15075 73.4398 6.36105C73.4364 6.33763 73.4364 6.31087 73.4331 6.28745C73.413 6.08005 73.2558 5.84588 73.0149 5.8693C72.3994 5.92951 71.7805 5.98973 71.165 6.04994C69.479 6.21386 67.7896 6.38112 66.1036 6.54504C63.6181 6.78924 61.1326 7.0301 58.6438 7.2743C55.6096 7.57202 52.5789 7.86641 49.5447 8.16413C46.2229 8.48862 42.9011 8.81311 39.5793 9.1376C36.2139 9.46543 32.8453 9.79661 29.48 10.1244C26.3522 10.4289 23.2277 10.7366 20.0999 11.041C17.4572 11.2986 14.8145 11.5595 12.1751 11.8171C10.275 12.0045 8.37488 12.1885 6.47479 12.3758C5.57157 12.4628 4.67171 12.5464 3.76849 12.6401C3.72835 12.6434 3.69155 12.6467 3.65141 12.6501C3.444 12.6702 3.20984 12.8274 3.23325 13.0683C3.3771 14.5402 3.52094 16.0121 3.66479 17.4806C4.00935 21.0132 4.35725 24.5424 4.70181 28.075C5.11662 32.3301 5.53478 36.5853 5.94959 40.8438C6.31087 44.5235 6.66881 48.1999 7.0301 51.8797C7.20405 53.6727 7.36128 55.4691 7.5553 57.2588C7.55864 57.2823 7.55864 57.309 7.56199 57.3324C7.58206 57.5398 7.73929 57.774 7.98014 57.7506C8.59567 57.6904 9.21454 57.6302 9.83006 57.5699C11.5161 57.406 13.2054 57.2388 14.8914 57.0748C17.3769 56.8306 19.8624 56.5898 22.3513 56.3456C25.3854 56.0479 28.4162 55.7535 31.4503 55.4558C34.7722 55.1313 38.094 54.8068 41.4158 54.4823C44.7811 54.1545 48.1498 53.8233 51.5151 53.4954C54.6429 53.191 57.7673 52.8833 60.8951 52.5788C63.5378 52.3213 66.1806 52.0603 68.82 51.8028C70.7201 51.6154 72.6202 51.4314 74.5203 51.2441C75.4235 51.1571 76.3233 51.0735 77.2266 50.9798C77.2667 50.9765 77.3035 50.9731 77.3436 50.9698C77.8789 50.9196 77.8856 50.08 77.347 50.1335Z" fill="#4A494A"/>
<path d="M74.1187 47.5742C73.55 47.6311 72.9813 47.6846 72.4126 47.7415C70.8738 47.892 69.335 48.0426 67.7995 48.1931C65.5281 48.4139 63.2534 48.638 60.9819 48.8588C58.2087 49.1298 55.4355 49.4007 52.6657 49.6717C49.6148 49.9694 46.564 50.2672 43.5131 50.5682C40.4455 50.8693 37.3813 51.167 34.3137 51.4681C31.4535 51.7491 28.5933 52.0267 25.7365 52.3077C23.3079 52.5453 20.8826 52.7828 18.4539 53.0203C16.7178 53.1909 14.9782 53.3615 13.242 53.5288C12.4358 53.609 11.5627 53.6023 10.7666 53.7696C10.7331 53.7763 10.693 53.7763 10.6595 53.7796C10.8 53.9201 10.9372 54.0573 11.0777 54.1978C10.9506 52.9132 10.8268 51.6287 10.6997 50.3441C10.3986 47.2765 10.1009 44.2089 9.7998 41.138C9.43852 37.4281 9.07388 33.7183 8.7126 30.0084C8.39815 26.8003 8.08369 23.5922 7.77259 20.3841C7.66888 19.3237 7.56518 18.2599 7.46148 17.1995C7.41465 16.7211 7.43806 16.1625 7.31429 15.6975C7.3076 15.6774 7.31094 15.6506 7.3076 15.6306C7.1671 15.7711 7.02994 15.9082 6.88944 16.0487C7.45813 15.9919 8.02682 15.9383 8.59552 15.8815C10.1343 15.7309 11.6731 15.5804 13.2086 15.4299C15.48 15.2091 17.7548 14.9849 20.0262 14.7642C22.7994 14.4932 25.5726 14.2222 28.3424 13.9513C31.3933 13.6535 34.4442 13.3558 37.495 13.0547C40.5626 12.7537 43.6268 12.4559 46.6944 12.1549C49.5546 11.8739 52.4148 11.5962 55.2716 11.3152C57.7003 11.0777 60.1256 10.8402 62.5542 10.6027C64.2904 10.4321 66.0299 10.2615 67.7661 10.0942C68.5723 10.0139 69.4454 10.0206 70.2416 9.85334C70.275 9.84665 70.3151 9.84665 70.3486 9.8433C70.2081 9.7028 70.0709 9.56565 69.9304 9.42515C70.0576 10.7097 70.1813 11.9943 70.3085 13.2789C70.6095 16.3464 70.9072 19.414 71.2083 22.485C71.5696 26.1948 71.9342 29.9047 72.2955 33.6146C72.61 36.8226 72.9244 40.0307 73.2355 43.2388C73.3894 44.801 73.5232 46.3666 73.6938 47.9255C73.6972 47.9489 73.6972 47.9723 73.7005 47.9924C73.7541 48.5243 74.5904 48.5276 74.5368 47.9924C74.4097 46.7078 74.2859 45.4232 74.1588 44.1387C73.8578 41.0711 73.56 38.0035 73.259 34.9326C72.8977 31.2227 72.533 27.5128 72.1718 23.803C71.8573 20.5949 71.5428 17.3868 71.2317 14.1787C71.0779 12.6165 70.944 11.0509 70.7734 9.49206C70.7701 9.46864 70.7701 9.44522 70.7668 9.42515C70.7467 9.21775 70.5895 8.98358 70.3486 9.007C69.7799 9.06386 69.2112 9.11739 68.6425 9.17426C67.1037 9.32479 65.5649 9.47533 64.0294 9.62587C61.758 9.84665 59.4833 10.0708 57.2119 10.2916C54.4386 10.5625 51.6654 10.8335 48.8956 11.1045C45.8447 11.4022 42.7939 11.6999 39.743 12.001C36.6754 12.3021 33.6112 12.5998 30.5436 12.9009C27.6834 13.1819 24.8233 13.4595 21.9664 13.7405C19.5378 13.978 17.1125 14.2155 14.6838 14.453C12.9477 14.6237 11.2081 14.7943 9.47197 14.9615C8.64569 15.0418 7.82277 15.1154 6.99649 15.2024C6.95969 15.2057 6.9229 15.2091 6.88944 15.2124C6.68204 15.2325 6.44787 15.3897 6.47129 15.6306C6.59841 16.9151 6.72218 18.1997 6.8493 19.4843C7.15037 22.5519 7.4481 25.6194 7.74917 28.6904C8.11046 32.4002 8.47509 36.1101 8.83637 39.82C9.15082 43.0281 9.46528 46.2361 9.77638 49.4442C9.93027 51.0064 10.0641 52.572 10.2347 54.1309C10.238 54.1543 10.238 54.1777 10.2414 54.1978C10.2614 54.4052 10.4187 54.6394 10.6595 54.616C11.2282 54.5591 11.7969 54.5056 12.3656 54.4487C13.9044 54.2982 15.4432 54.1476 16.9787 53.9971C19.2501 53.7763 21.5249 53.5522 23.7963 53.3314C26.5695 53.0604 29.3427 52.7895 32.1125 52.5185C35.1634 52.2208 38.2142 51.923 41.2651 51.622C44.3327 51.3209 47.3969 51.0232 50.4645 50.7221C53.3247 50.4411 56.1849 50.1634 59.0417 49.8824C61.4703 49.6449 63.8956 49.4074 66.3243 49.1699C68.0605 48.9993 69.8 48.8287 71.5362 48.6614C72.3624 48.5812 73.1854 48.5076 74.0116 48.4206C74.0484 48.4172 74.0852 48.4139 74.1187 48.4105C74.6506 48.357 74.6539 47.5207 74.1187 47.5742Z" fill="#E94D21"/>
<path d="M33.1776 30.6497L11.6212 32.7595L11.7495 34.0712L33.306 31.9614L33.1776 30.6497Z" fill="#E94D21"/>
<path d="M33.4921 33.8441L11.9356 35.9538L12.064 37.2655L33.6204 35.1558L33.4921 33.8441Z" fill="#E94D21"/>
<path d="M33.8268 37.256L12.2703 39.3658L12.3987 40.6775L33.9551 38.5677L33.8268 37.256Z" fill="#E94D21"/>
<path d="M67.0751 13.0156L54.9603 14.2013L56.1459 26.3162L68.2608 25.1305L67.0751 13.0156Z" fill="#E94D21"/>
<path d="M68.2612 24.9237C64.7186 25.2716 61.1794 25.6161 57.6368 25.964C57.1383 26.0142 56.6432 26.061 56.1448 26.1112C56.2151 26.1815 56.2853 26.2517 56.3522 26.3186C56.0043 22.776 55.6597 19.2368 55.3118 15.6941C55.2617 15.1957 55.2148 14.7006 55.1647 14.2022C55.0944 14.2724 55.0242 14.3427 54.9572 14.4096C58.4998 14.0617 62.0391 13.7171 65.5817 13.3692C66.0802 13.319 66.5752 13.2722 67.0737 13.222C67.0034 13.1518 66.9332 13.0815 66.8663 13.0146C67.2142 16.5572 67.5587 20.0965 67.9067 23.6391C67.9568 24.1375 68.0037 24.6326 68.0538 25.1311C68.0806 25.3953 68.4988 25.3987 68.472 25.1311C68.1241 21.5885 67.7795 18.0492 67.4316 14.5066C67.3815 14.0081 67.3346 13.513 67.2844 13.0146C67.2744 12.9109 67.1975 12.7938 67.077 12.8072C63.5344 13.1551 59.9952 13.4997 56.4526 13.8476C55.9541 13.8978 55.459 13.9446 54.9606 13.9948C54.8569 14.0048 54.7398 14.0817 54.7532 14.2022C55.1011 17.7448 55.4456 21.284 55.7936 24.8266C55.8437 25.3251 55.8906 25.8202 55.9407 26.3186C55.9508 26.4223 56.0277 26.5394 56.1481 26.526C59.6908 26.1781 63.23 25.8336 66.7726 25.4857C67.2711 25.4355 67.7662 25.3886 68.2646 25.3385C68.5255 25.3151 68.5289 24.8969 68.2612 24.9237Z" fill="#E94D21"/>
<path d="M56.9879 17.7916C57.0882 17.2196 57.2421 16.3164 58.0215 15.8112C58.8545 15.2726 59.8514 15.5369 59.9551 15.567C59.9551 15.567 60.2194 15.6406 61.4571 16.4C62.5677 15.2057 62.8253 15.092 62.8253 15.092C63.6248 14.7307 64.7622 15.0753 65.4446 15.6975C66.4382 16.6074 66.3211 17.999 66.2609 18.7249C66.1706 19.7921 65.7725 20.4778 65.0599 21.7022C64.4879 22.6857 63.4174 24.5289 62.3269 24.3851C62.2432 24.375 62.183 24.355 62.1262 24.3349C58.443 23.0905 57.3558 20.5046 57.3558 20.5046C57.1886 20.1065 56.7671 19.0728 56.9879 17.7916Z" fill="#FDEFF0"/>
<path d="M52.0687 23.1387C52.1042 23.1728 52.1035 23.2882 52.068 23.4407C52.0553 23.4956 51.973 23.7241 51.8844 23.9512C51.7977 24.176 51.7275 24.3637 51.7315 24.3654C51.7359 24.369 51.8228 24.3724 51.9275 24.374C52.1493 24.376 52.2266 24.4045 52.1988 24.4727C52.1677 24.5453 51.8857 24.8548 51.7114 25.005C51.7078 25.0093 51.7727 25.1796 51.8533 25.3843C51.9356 25.5887 52.0259 25.8302 52.0547 25.9185C52.1025 26.0768 52.1035 26.0885 52.0841 26.2414C52.0724 26.328 52.0229 26.5632 51.976 26.7642L51.8891 27.1302L51.9192 27.439L51.9473 27.7481L51.8757 27.8384C51.8362 27.8879 51.7031 28.0083 51.58 28.1077L51.3562 28.2883L51.0956 28.3C50.7206 28.3167 50.4851 28.2545 49.8137 27.9568C49.517 27.827 49.3514 27.7795 49.058 27.7427C48.7767 27.7086 48.6352 27.7206 48.583 27.7872C48.4953 27.8989 48.4488 28.124 48.4425 28.4502C48.4405 28.5536 48.4207 28.7841 48.4017 28.9607C48.3558 29.3344 48.3572 29.3504 48.4211 29.4869C48.4722 29.597 48.5873 29.7863 48.6034 29.785C48.6094 29.7843 48.688 29.7448 48.778 29.6963C48.87 29.6475 49.0296 29.5705 49.1356 29.5223C49.2687 29.4618 49.4337 29.3581 49.6892 29.1704L50.0559 28.9062L50.5289 28.7409C51.3602 28.4492 51.8754 28.3033 52.0861 28.2967C52.3614 28.2896 52.7919 28.5154 52.9415 28.7453C53.0412 28.8985 52.998 29.0754 52.8093 29.2865C52.5969 29.5237 52.5113 29.5521 51.9928 29.5411C51.6763 29.5364 51.6074 29.5531 51.4796 29.6689C51.4171 29.7288 51.3706 29.7492 51.2762 29.7702C51.0732 29.8141 50.8547 29.9268 50.6727 30.0834C50.6246 30.1258 50.4854 30.2667 50.3653 30.3975C50.2436 30.5306 50.0669 30.7005 49.9739 30.7792C49.4658 31.2043 48.228 32.0343 47.9976 32.1062C47.8862 32.141 47.6547 32.1397 47.3212 32.1069C47.1867 32.0922 47.0716 32.0875 47.0642 32.0962C47.0515 32.1112 46.9391 33.0001 46.9147 33.2844C46.9057 33.3768 46.9053 33.5196 46.9137 33.6022C46.9354 33.8243 47.0535 34.3529 47.1817 34.7991C47.2061 34.8841 47.2736 35.1236 47.3322 35.3303C47.3907 35.5371 47.4663 35.8375 47.5005 35.9991C47.6092 36.5146 47.6139 36.5202 47.9454 36.5333C48.2525 36.545 48.3923 36.5949 48.6131 36.7738C48.8991 37.002 49.06 37.2683 49.0235 37.4486C49.0005 37.562 48.9058 37.6844 48.7834 37.752C48.688 37.8068 48.6683 37.8108 48.1856 37.856C47.7908 37.8945 47.6202 37.9015 47.3636 37.8928L47.0401 37.8808L46.6354 37.9641C46.2406 38.0444 46.143 38.0561 42.7214 38.4006L39.2126 38.7559L39.1022 38.8225C38.669 39.0874 38.2753 39.9598 38.1686 40.8875C38.1144 41.3615 38.203 41.9386 38.4626 42.8227C38.7888 43.9347 39.3548 45.3346 39.7278 45.9575C40.3316 46.9648 41.3877 47.7987 42.2414 47.9416C42.7552 48.0282 43.4012 47.9432 43.9749 47.7144C44.0816 47.6723 44.3208 47.5672 44.5058 47.4816C45.2645 47.1293 45.4635 47.0641 45.7051 47.0822C45.8757 47.0972 45.967 47.126 46.0714 47.2033C46.1948 47.2926 46.253 47.392 46.2811 47.5562C46.3209 47.7984 46.263 48.0523 46.1215 48.251C45.9021 48.5604 44.6794 49.0693 43.5287 49.3268C43.2687 49.386 42.405 49.4703 42.1926 49.4576C41.2693 49.4051 40.5935 49.1234 39.8211 48.4745C38.9785 47.7646 38.1863 46.6249 37.5363 45.1854C37.1409 44.3127 36.8756 43.5165 36.691 42.6571C36.612 42.2834 36.5134 41.3341 36.5164 40.9764C36.5294 39.9167 36.7331 38.9536 37.2075 37.7299C37.5728 36.7926 37.6119 36.4513 37.4985 35.2313C37.4343 34.5328 37.4313 34.4616 37.449 34.1502C37.5557 32.3605 38.2004 30.6751 39.2635 29.3996C39.9141 28.6211 41.0669 27.6447 42.2481 26.8756C42.8292 26.4953 43.344 26.2005 44.1147 25.8075C44.366 25.6777 44.6634 25.5094 44.7764 25.4311C45.2538 25.1026 46.624 24.2914 46.8301 24.2155C47.2071 24.0753 48.5592 23.7364 48.9623 23.6812C49.2483 23.6414 49.4153 23.6408 49.8659 23.6762C50.0161 23.6893 50.1917 23.6939 50.2556 23.6876C50.3372 23.6796 50.5911 23.5973 51.1029 23.416C51.9162 23.1239 52.0239 23.0935 52.0687 23.1387ZM45.3016 34.7282C45.2916 34.8503 45.1986 35.1373 45.0869 35.3946C44.9899 35.6167 44.8611 35.8636 44.6326 36.265C44.5279 36.45 44.5172 36.5463 44.5931 36.6025C44.6192 36.624 44.759 36.6738 44.9022 36.7153C45.045 36.7548 45.2632 36.823 45.3896 36.8621L45.6184 36.9371L45.8579 36.9157C46.0178 36.902 46.1226 36.9036 46.1704 36.919C46.2701 36.9491 46.3791 36.9541 46.4092 36.9314C46.443 36.9063 46.2627 36.5467 46.0011 36.1155C45.8911 35.9355 45.7536 35.685 45.697 35.5595C45.5836 35.3046 45.3501 34.7098 45.3455 34.6606C45.3394 34.6031 45.308 34.6519 45.3016 34.7282Z" fill="#BFBEBE"/>
</svg>
